<svg xmlns="http://www.w3.org/2000/svg" xmlns:xlink="http://www.w3.org/1999/xlink" width="256" height="256" version="1.1" viewBox="0 0 256 256"><title>budgie-remix Logo</title><metadata/><circle cx="128" cy="128" r="128" fill="#404552"/><path id="budgie" fill="#fff" d="m170.3 144.9c-16.239 0-29.89 11.536-34.224 26.824-0.91476 3.2271-1.5441 4.3327-2.7749 6.4748-1.587 2.7622-4.8086 6.7512-9.2497 9.2497-3.6132 2.0327-6.727 3.7622-11.38 3.0613-1.2112-0.18246-3.3572-0.51979-5.5045-1.7552-3.4224-1.9702-4.5508-3.6999-7.1685-8.704 0.3737 5.3406-0.31494 7.289 2.3124 16.649 5.2299 18.633 25.327 33.299 49.023 33.299 17.566 0 33.847-7.3212 43.007-18.498 3.3504-4.0875 5.8734-7.3126 8.3247-12.95 2.2303-5.1288 2.777-11.704 2.7786-17.576 0.006-19.939-15.737-36.074-35.149-36.074z"/><use width="100%" height="100%" x="0" y="0" transform="matrix(-.5 .86603 -.86603 -.5 302.85 81.149)" xlink:href="#budgie"/><use width="100%" height="100%" x="0" y="0" transform="matrix(-.5 -.86603 .86603 -.5 81.149 302.85)" xlink:href="#budgie"/></svg>