<svg xmlns="http://www.w3.org/2000/svg" xmlns:svg="http://www.w3.org/2000/svg" id="youtube-circle" width="16" height="16" x="0" y="0" version="1.1" viewBox="0 0 16 16"><title id="title842">Youtube Icon Circle</title><metadata id="metadata17"/><path id="youtube-logo-circle" d="M 7.9999995,0 C 3.5679998,0 0,3.5679998 0,7.9999995 c 0,4.4319995 3.5679998,7.9999995 7.9999995,7.9999995 4.4319995,0 7.9999995,-3.568 7.9999995,-7.9999995 C 15.999999,3.5679998 12.431999,0 7.9999995,0 Z m -0.00333,4.2252081 c 0,0 3.3783555,1.07e-5 4.2245825,0.2332291 0.459776,0.1199416 0.826205,0.4863731 0.946146,0.9461459 0.233221,0.8462453 0.226563,2.6054164 0.226563,2.6054164 0,0 -7e-6,1.7524927 -0.226563,2.5920835 -0.119941,0.46643 -0.48637,0.826209 -0.946146,0.952812 -0.846227,0.219893 -4.2245825,0.219896 -4.2245825,0.219896 0,0 -3.3650082,-9e-6 -4.2179165,-0.226562 C 3.3189776,11.421623 2.9525414,11.055182 2.8259373,10.595416 2.6060465,9.7624895 2.6060415,8.0033328 2.6060415,8.0033328 c 0,0 5e-6,-1.7525044 0.2198958,-2.5987497 C 2.9525414,4.9448103 3.3256412,4.5717066 3.7787497,4.4451039 4.6249948,4.2252111 7.9966662,4.2252081 7.9966662,4.2252081 Z M 6.923854,6.384166 V 9.615833 L 9.7291663,8.0033328 Z" style="fill:#fff"/></svg>