<svg xmlns="http://www.w3.org/2000/svg" xmlns:svg="http://www.w3.org/2000/svg" id="svg8" width="146" height="146" version="1.1" viewBox="0 0 38.629 38.629"><metadata id="metadata5"/><g id="layer1" transform="translate(-29.809094,4.5286157)"><g id="g3088" transform="matrix(0.26458333,0,0,0.26458333,118.44451,-4.5286157)"><g id="g3086"><g id="g3064"><path style="fill:#ffc53e" id="path3062" d="m -262,81 c -0.9,0 -1.8,-0.3 -2.4,-1 l -25.2,-24 v 36.8 h 55.3 V 56 l -25.2,24 c -0.7,0.7 -1.6,1 -2.5,1 z"/></g><g id="g3068"><path style="fill:#2fa99d" id="path3066" d="m -189,73 c -11.2,0 -25.4,-7.6 -38.3,-18.4 V 91.5 C -214.3,80.6 -200.1,73 -189,73 Z"/></g><g id="g3072"><polygon style="fill:#ffc53e" id="polygon3070" points="-283.3 52.2 -262 72.6 -240.6 52.2"/></g><g id="g3076"><path style="fill:#2fa99d" id="path3074" d="m -262,0 c 0,13.2 -10.6,30.6 -24.6,45.1 h 49.3 C -251.4,30.6 -262,13.2 -262,0 Z"/></g><g id="g3080"><path style="fill:#2fa99d" id="path3078" d="m -262,146 c 0,-13.5 11.1,-31.4 25.6,-46.1 h -51.1 c 14.5,14.7 25.5,32.6 25.5,46.1 z"/></g><g id="g3084"><path style="fill:#2fa99d" id="path3082" d="m -335,73 c 11.2,0 25.4,7.6 38.3,18.4 V 54.6 C -309.6,65.4 -323.8,73 -335,73 Z"/></g></g></g></g></svg>