<svg xmlns="http://www.w3.org/2000/svg" xmlns:xlink="http://www.w3.org/1999/xlink" width="32" height="32" version="1.1" viewBox="0 0 32 32" xml:space="preserve"><defs><linearGradient id="linearGradient3898" x1="4" x2="28" y1="31" y2="1" gradientUnits="userSpaceOnUse"><stop offset="0" stop-color="#cb6d30"/><stop offset="1" stop-color="#fffb57"/></linearGradient></defs><g fill-rule="evenodd"><path fill="url(#linearGradient3898)" stroke-linecap="square" d="m7 0c-2.216 0-4 1.784-4 4v24c0 2.216 1.784 4 4 4h18c2.216 0 4-1.784 4-4v-16l-12-12h-10zm13 0 9 9v-9h-9z"/><g stroke-linecap="square"><path fill-opacity=".199" d="m3 27v1c0 2.216 1.784 4 4 4h18c2.216 0 4-1.784 4-4v-1c0 2.216-1.784 4-4 4h-18c-2.216 0-4-1.784-4-4z"/><path fill-opacity=".201" d="m20 0h1.4l7.6 7.6v1.4z"/></g><g><circle cx="12" cy="17" r="4" fill="#fafafa"/><path fill="#fafafa" d="m18 15c-0.554 0-1 0.446-1 1v5c0 0.554 0.446 1 1 1h5c0.554 0 1-0.446 1-1v-5c0-0.554-0.446-1-1-1h-5zm0 1h5v5h-5v-5z"/><path fill="#f9e186" d="m14.5 16.866 4.1962 7.268a0.57735 0.57735 120 0 1-0.5 0.86602h-8.3923a0.57735 0.57735 60 0 1-0.5-0.86603l4.1962-7.2679a0.57735 0.57735 1.5352e-6 0 1 1 0z" transform="translate(.50015)"/></g></g></svg>