<svg xmlns="http://www.w3.org/2000/svg" xmlns:xlink="http://www.w3.org/1999/xlink" width="32" height="32" version="1.1" viewBox="0 0 32 32" xml:space="preserve"><defs><linearGradient id="linearGradient3898" x1="4" x2="28" y1="31" y2="1" gradientUnits="userSpaceOnUse"><stop offset="0" stop-color="#7324a9"/><stop offset="1" stop-color="#fa51fd"/></linearGradient></defs><g fill-rule="evenodd"><path fill="url(#linearGradient3898)" stroke-linecap="square" d="m7 0c-2.216 0-4 1.784-4 4v24c0 2.216 1.784 4 4 4h18c2.216 0 4-1.784 4-4v-16l-12-12h-10zm13 0 9 9v-9h-9z"/><g stroke-linecap="square"><path fill-opacity=".199" d="m3 27v1c0 2.216 1.784 4 4 4h18c2.216 0 4-1.784 4-4v-1c0 2.216-1.784 4-4 4h-18c-2.216 0-4-1.784-4-4z"/><path fill-opacity=".201" d="m20 0h1.4l7.6 7.6v1.4z"/></g><g><path fill="#fa9bfd" d="m12 13a4 1 0 0 0-4 1v1a4 1 0 0 0 4 1 4 1 0 0 0 4-1v-1a4 1 0 0 0-4-1zm-4 3v2a4 1 0 0 0 4 1 4 1 0 0 0 4-1v-2a4 1 0 0 1-4 1 4 1 0 0 1-4-1zm0 3v2a4 1 0 0 0 4 1 4 1 0 0 0 4-1v-2a4 1 0 0 1-4 1 4 1 0 0 1-4-1zm0 3v2a4 1 0 0 0 4 1 4 1 0 0 0 4-1v-2a4 1 0 0 1-4 1 4 1 0 0 1-4-1z"/><path fill="#fafafa" d="m18 15c-0.554 0-1 0.446-1 1v8c0 0.554 0.446 1 1 1h5c0.554 0 1-0.446 1-1v-8c0-0.554-0.446-1-1-1h-5zm0 1h2v2h-2v-2zm3 0h2v2h-2v-2zm-3 3h2v2h-2v-2zm3 0h2v2h-2v-2zm-3 3h2v2h-2v-2zm3 0h2v2h-2v-2z"/></g></g></svg>