<svg xmlns="http://www.w3.org/2000/svg" xmlns:xlink="http://www.w3.org/1999/xlink" width="32" height="32" version="1.1" viewBox="0 0 32 32" xml:space="preserve"><defs><linearGradient id="linearGradient3898" x1="4" x2="28" y1="31" y2="1" gradientUnits="userSpaceOnUse"><stop offset="0" stop-color="#083fa6"/><stop offset="1" stop-color="#2dcbfd"/></linearGradient></defs><g fill-rule="evenodd" stroke-linecap="square"><path fill="url(#linearGradient3898)" d="m7 0c-2.216 0-4 1.784-4 4v24c0 2.216 1.784 4 4 4h18c2.216 0 4-1.784 4-4v-16l-12-12h-10zm13 0 9 9v-9h-9z"/><g><path fill-opacity=".199" d="m3 27v1c0 2.216 1.784 4 4 4h18c2.216 0 4-1.784 4-4v-1c0 2.216-1.784 4-4 4h-18c-2.216 0-4-1.784-4-4z"/><path fill-opacity=".201" d="m20 0h1.4l7.6 7.6v1.4z"/></g><g><g fill="#fafafa"><rect width="7" height="1" x="8" y="13" ry=".5"/><rect width="7" height="1" x="8" y="15" ry=".5"/><rect width="7" height="1" x="8" y="17" ry=".5"/><rect width="16" height="1" x="8" y="20" ry=".5"/><rect width="16" height="1" x="8" y="22" ry=".5"/><rect width="7" height="1" x="8" y="24" ry=".5"/></g><path fill="#9ae9f9" d="m18 13c-0.554 0-1 0.446-1 1v3c0 0.554 0.446 1 1 1h5c0.554 0 1-0.446 1-1v-3c0-0.554-0.446-1-1-1h-5zm4.5 1a0.5 0.5 0 0 1 0.5 0.5 0.5 0.5 0 0 1-0.5 0.5 0.5 0.5 0 0 1-0.5-0.5 0.5 0.5 0 0 1 0.5-0.5zm-3.1641 0.5293a0.61803 0.61803 0 0 1 0.37109 0.17773l2.293 2.293h-4l0.68359-2.0508a0.61803 0.61803 0 0 1 0.65234-0.41992z"/></g></g></svg>