<svg xmlns="http://www.w3.org/2000/svg" xmlns:svg="http://www.w3.org/2000/svg" xmlns:xlink="http://www.w3.org/1999/xlink" id="svg4161" width="64" height="64" version="1.1"><defs id="defs4163"><linearGradient id="linearGradient3905"><stop style="stop-color:#fff;stop-opacity:1" id="stop3907" offset="0"/><stop style="stop-color:#fff;stop-opacity:0" id="stop3909" offset="1"/></linearGradient><linearGradient id="linearGradient3688-166-749-4-0-3-8"><stop id="stop2883-4-0-1-8" offset="0" style="stop-color:#181818;stop-opacity:1"/><stop id="stop2885-9-2-9-6" offset="1" style="stop-color:#181818;stop-opacity:0"/></linearGradient><linearGradient id="linearGradient3688-464-309-9-2-4-2"><stop id="stop2889-7-9-6-9" offset="0" style="stop-color:#181818;stop-opacity:1"/><stop id="stop2891-6-6-1-7" offset="1" style="stop-color:#181818;stop-opacity:0"/></linearGradient><linearGradient id="linearGradient3702-501-757-8-4-1-1"><stop id="stop2895-8-9-9-1" offset="0" style="stop-color:#181818;stop-opacity:0"/><stop id="stop2897-7-8-7-7" offset=".5" style="stop-color:#181818;stop-opacity:1"/><stop id="stop2899-4-5-1-5" offset="1" style="stop-color:#181818;stop-opacity:0"/></linearGradient><linearGradient id="linearGradient3897" x1="25.058" x2="25.058" y1="47.028" y2="39.999" gradientTransform="matrix(1.5789502,0,0,0.7142857,-5.894751,27.928572)" gradientUnits="userSpaceOnUse" xlink:href="#linearGradient3702-501-757-8-4-1-1"/><radialGradient id="radialGradient3900" cx="4.993" cy="43.5" r="2.5" fx="4.993" fy="43.5" gradientTransform="matrix(3.1638751,0,0,0.99999998,-25.702995,-102.5)" gradientUnits="userSpaceOnUse" xlink:href="#linearGradient3688-464-309-9-2-4-2"/><radialGradient id="radialGradient3903" cx="4.993" cy="43.5" r="2.5" fx="4.993" fy="43.5" gradientTransform="matrix(3.1638751,0,0,0.99999998,38.297112,15.500001)" gradientUnits="userSpaceOnUse" xlink:href="#linearGradient3688-166-749-4-0-3-8"/><linearGradient id="linearGradient3911" x1="32" x2="32" y1="4" y2="60" gradientUnits="userSpaceOnUse" xlink:href="#linearGradient3905"/><linearGradient id="linearGradient4100"><stop id="stop4102" offset="0" style="stop-color:#aaa;stop-opacity:1"/><stop id="stop4104" offset="1" style="stop-color:#767676;stop-opacity:1"/></linearGradient><linearGradient id="linearGradient4084"><stop style="stop-color:#cd5fc2;stop-opacity:1" id="stop4086" offset="0"/><stop style="stop-color:#9a4993;stop-opacity:1" id="stop4088" offset="1"/></linearGradient><clipPath id="clipPath4384" clipPathUnits="userSpaceOnUse"><rect id="rect4386" width="36" height="14" x="318" y="184" ry="7" style="opacity:0;color:#bebebe;fill:#000;fill-opacity:1;fill-rule:nonzero;stroke:none;stroke-width:1;marker:none;visibility:visible;display:inline;overflow:visible;enable-background:accumulate"/></clipPath><linearGradient id="linearGradient3413"><stop style="stop-color:#ddd;stop-opacity:1" id="stop3415" offset="0"/><stop style="stop-color:#f2f2f2;stop-opacity:1" id="stop3417" offset="1"/></linearGradient><linearGradient id="linearGradient3993" x1="336" x2="336" y1="273" y2="231" gradientTransform="matrix(1.4999978,0,0,1.4999978,-459.99927,-345.99947)" gradientUnits="userSpaceOnUse" xlink:href="#linearGradient3413"/><linearGradient id="linearGradient3997" x1="324" x2="324" y1="231" y2="273" gradientTransform="matrix(1.4999978,0,0,1.4999978,-459.99927,-345.99947)" gradientUnits="userSpaceOnUse" xlink:href="#linearGradient4084"/><linearGradient id="linearGradient4000" x1="328" x2="328" y1="235" y2="277" gradientTransform="matrix(1.4999978,0,0,1.4999978,-459.99927,-351.99946)" gradientUnits="userSpaceOnUse" xlink:href="#linearGradient4100"/><linearGradient id="linearGradient4004" x1="4.5" x2="59.5" y1="32" y2="32" gradientTransform="matrix(0,-1,-1,0,64,64)" gradientUnits="userSpaceOnUse" xlink:href="#linearGradient3413"/></defs><metadata id="metadata4166"/><g id="layer1" style="display:inline"><rect id="rect2801-5-5-7-9" width="7.895" height="5" x="54.105" y="56.5" style="opacity:.6;fill:url(#radialGradient3903);fill-opacity:1;stroke:none"/><rect id="rect3696-3-0-3-7" width="7.895" height="5" x="-9.895" y="-61.5" transform="scale(-1,-1)" style="opacity:.6;fill:url(#radialGradient3900);fill-opacity:1;stroke:none"/><rect id="rect3700-5-6-8-4" width="44.211" height="5" x="9.895" y="56.5" style="opacity:.6;fill:url(#linearGradient3897);fill-opacity:1;stroke:none"/><path style="color:#000;fill:url(#linearGradient4004);fill-opacity:1;fill-rule:nonzero;stroke:none;stroke-width:.99999994;marker:none;visibility:visible;display:inline;overflow:visible;enable-background:accumulate" id="rect5505-21-3-8-5-2" d="M 7.5,5 C 6.1063514,5 5,6.1063514 5,7.5 l 0,49 C 5,57.893649 6.1063514,59 7.5,59 l 49,0 c 1.393649,0 2.5,-1.106351 2.5,-2.5 l 0,-49 C 59,6.1063514 57.893649,5 56.5,5 l -49,0 z"/><rect style="opacity:.1;fill:none;stroke:url(#linearGradient3911);stroke-width:1;stroke-linecap:round;stroke-linejoin:round;stroke-miterlimit:4;stroke-opacity:1;stroke-dasharray:none;stroke-dashoffset:0" id="rect6741-5-0-2-3" width="53" height="53.142" x="5.5" y="5.429" rx="2" ry="2"/><rect style="opacity:.41;color:#000;fill:none;stroke:#000;stroke-width:1;stroke-linecap:round;stroke-linejoin:round;stroke-miterlimit:4;stroke-opacity:1;stroke-dasharray:none;stroke-dashoffset:0;marker:none;visibility:visible;display:inline;overflow:visible;enable-background:accumulate" id="rect5505-21-3-8-9-1-1" width="55" height="55" x="4.5" y="4.5" rx="3" ry="3"/><path style="opacity:.15;color:#000;fill:#fff;fill-opacity:1;fill-rule:nonzero;stroke:none;stroke-width:.99999994;marker:none;visibility:visible;display:inline;overflow:visible;enable-background:accumulate" id="rect3932" d="M 7.5,5 C 6.1063514,5 5,6.1063514 5,7.5 l 0,1 C 5,7.1063514 6.1063514,6 7.5,6 l 49,0 C 57.893649,6 59,7.1063514 59,8.5 l 0,-1 C 59,6.1063514 57.893649,5 56.5,5 l -49,0 z"/><path id="path3946" d="M 7.5,59 C 6.1063514,59 5,57.893649 5,56.5 l 0,-1 C 5,56.893649 6.1063514,58 7.5,58 l 49,0 c 1.393649,0 2.5,-1.106351 2.5,-2.5 l 0,1 c 0,1.393649 -1.106351,2.5 -2.5,2.5 l -49,0 z" style="opacity:.15;color:#000;fill:#fff;fill-opacity:1;fill-rule:nonzero;stroke:none;stroke-width:.99999994;marker:none;visibility:visible;display:inline;overflow:visible;enable-background:accumulate"/></g><g id="layer2" style="display:inline"><g id="g5006" transform="translate(-288,-136.49998)" style="opacity:.4;fill:#fff;fill-opacity:1;display:inline;enable-background:new"><rect id="rect5008" width="36" height="14" x="302" y="173.5" ry="7" style="color:#bebebe;fill:#fff;fill-opacity:1;fill-rule:nonzero;stroke:none;stroke-width:1;marker:none;visibility:visible;display:inline;overflow:visible;enable-background:accumulate"/><rect style="color:#bebebe;fill:#fff;fill-opacity:1;fill-rule:nonzero;stroke:none;stroke-width:1;marker:none;visibility:visible;display:inline;overflow:visible;enable-background:accumulate" id="rect5010" width="36" height="14" x="302" y="151.5" ry="6.75"/><rect id="rect5012" width="21" height="12" x="316" y="153.5" ry="6" style="opacity:.1;color:#bebebe;fill:#fff;fill-opacity:1;fill-rule:nonzero;stroke:none;stroke-width:1;marker:none;visibility:visible;display:inline;overflow:visible;enable-background:accumulate"/><rect style="color:#bebebe;fill:#fff;fill-opacity:1;fill-rule:nonzero;stroke:none;stroke-width:1;marker:none;visibility:visible;display:inline;overflow:visible;enable-background:accumulate" id="rect5014" width="21" height="12" x="316" y="152.5" ry="6"/><rect style="opacity:.1;color:#bebebe;fill:#fff;fill-opacity:1;fill-rule:nonzero;stroke:none;stroke-width:1;marker:none;visibility:visible;display:inline;overflow:visible;enable-background:accumulate" id="rect5016" width="21" height="12" x="303" y="175.5" ry="6"/><rect id="rect5018" width="21" height="12" x="303" y="174.5" ry="6" style="color:#bebebe;fill:#fff;fill-opacity:1;fill-rule:nonzero;stroke:none;stroke-width:1;marker:none;visibility:visible;display:inline;overflow:visible;enable-background:accumulate"/><rect style="opacity:0;color:#bebebe;fill:#fff;fill-opacity:1;stroke:#000;stroke-width:1;stroke-opacity:1;marker:none;visibility:visible;display:inline;overflow:visible;enable-background:accumulate" id="rect5020" width="36" height="14" x="318" y="184" clip-path="url(#clipPath4384)" ry="7" transform="translate(-16,-10.500015)"/><rect id="rect5022" width="36" height="14" x="318" y="184" clip-path="url(#clipPath4384)" ry="7" transform="translate(-16,-10.500015)" style="opacity:0;color:#bebebe;fill:#fff;fill-opacity:1;stroke:#000;stroke-width:2;stroke-miterlimit:4;stroke-opacity:1;stroke-dasharray:none;marker:none;visibility:visible;display:inline;overflow:visible;enable-background:accumulate"/><rect style="opacity:0;color:#bebebe;fill:#fff;fill-opacity:1;stroke:#000;stroke-width:2;stroke-miterlimit:4;stroke-opacity:1;stroke-dasharray:none;marker:none;visibility:visible;display:inline;overflow:visible;enable-background:accumulate" id="rect5024" width="36" height="14" x="318" y="184" clip-path="url(#clipPath4384)" ry="7" transform="translate(-15.999969,-32.5)"/><rect id="rect5026" width="36" height="14" x="318" y="184" clip-path="url(#clipPath4384)" ry="7" transform="translate(-15.999969,-32.5)" style="opacity:0;color:#bebebe;fill:#fff;fill-opacity:1;stroke:#000;stroke-width:1;stroke-miterlimit:4;stroke-opacity:1;stroke-dasharray:none;marker:none;visibility:visible;display:inline;overflow:visible;enable-background:accumulate"/></g><rect id="rect4266" width="36" height="14" x="14" y="36" ry="7" style="color:#bebebe;fill:url(#linearGradient4000);fill-opacity:1;fill-rule:nonzero;stroke:none;stroke-width:1;marker:none;visibility:visible;display:inline;overflow:visible;enable-background:accumulate"/><rect style="color:#bebebe;fill:url(#linearGradient3997);fill-opacity:1;fill-rule:nonzero;stroke:none;stroke-width:1;marker:none;visibility:visible;display:inline;overflow:visible;enable-background:accumulate" id="rect4268" width="36" height="14" x="14" y="14" ry="6.75"/><path style="color:#bebebe;fill:#000;fill-opacity:1;fill-rule:nonzero;stroke:none;stroke-width:1;marker:none;visibility:visible;display:inline;overflow:visible;enable-background:accumulate;opacity:.2" id="path4002" d="m 34,16 c -3.324,0 -6,2.676 -6,6 0,3.324 2.676,6 6,6 l 9,0 c 3.324,0 6,-2.676 6,-6 0,-3.324 -2.676,-6 -6,-6 l -9,0 z M 21,38 c -3.324,0 -6,2.676 -6,6 0,3.324 2.676,6 6,6 l 9,0 c 3.324,0 6,-2.676 6,-6 0,-3.324 -2.676,-6 -6,-6 l -9,0 z"/><rect id="rect4376" width="21" height="12" x="28" y="16" ry="6" style="opacity:.15;color:#bebebe;fill:#000;fill-opacity:1;fill-rule:nonzero;stroke:none;stroke-width:1;marker:none;visibility:visible;display:inline;overflow:visible;enable-background:accumulate"/><path id="rect4276" d="m 34,15 c -3.324,0 -6,2.676 -6,6 0,3.324 2.676,6 6,6 l 9,0 c 3.324,0 6,-2.676 6,-6 0,-3.324 -2.676,-6 -6,-6 l -9,0 z M 21,37 c -3.324,0 -6,2.676 -6,6 0,3.324 2.676,6 6,6 l 9,0 c 3.324,0 6,-2.676 6,-6 0,-3.324 -2.676,-6 -6,-6 l -9,0 z" style="color:#bebebe;fill:url(#linearGradient3993);fill-opacity:1;fill-rule:nonzero;stroke:none;stroke-width:1;marker:none;visibility:visible;display:inline;overflow:visible;enable-background:accumulate"/><rect style="opacity:0;color:#bebebe;fill:none;stroke:#000;stroke-width:1;stroke-opacity:1;marker:none;visibility:visible;display:inline;overflow:visible;enable-background:accumulate" id="rect4380" width="36" height="14" x="318" y="184" clip-path="url(#clipPath4384)" ry="7" transform="translate(-304,-148)"/><rect id="rect4388" width="36" height="14" x="318" y="184" clip-path="url(#clipPath4384)" ry="7" transform="translate(-304,-148)" style="opacity:0;color:#bebebe;fill:none;stroke:#000;stroke-width:2;stroke-miterlimit:4;stroke-opacity:1;stroke-dasharray:none;marker:none;visibility:visible;display:inline;overflow:visible;enable-background:accumulate"/><rect style="opacity:0;color:#bebebe;fill:none;stroke:#000;stroke-width:2;stroke-miterlimit:4;stroke-opacity:1;stroke-dasharray:none;marker:none;visibility:visible;display:inline;overflow:visible;enable-background:accumulate" id="rect4390" width="36" height="14" x="318" y="184" clip-path="url(#clipPath4384)" ry="7" transform="translate(-303.99997,-169.99999)"/><rect id="rect4392" width="36" height="14" x="318" y="184" clip-path="url(#clipPath4384)" ry="7" transform="translate(-303.99997,-169.99999)" style="opacity:0;color:#bebebe;fill:none;stroke:#000;stroke-width:1;stroke-miterlimit:4;stroke-opacity:1;stroke-dasharray:none;marker:none;visibility:visible;display:inline;overflow:visible;enable-background:accumulate"/><path id="rect3957" d="M 20.75,14 C 17.010506,14 14,17.010506 14,20.75 l 0,0.5 c 0,0.08481 -0.0031,0.165963 0,0.25 0.132315,-3.621213 3.095323,-6.5 6.75,-6.5 l 22.5,0 c 3.654677,0 6.617685,2.878787 6.75,6.5 0.0031,-0.08404 0,-0.165187 0,-0.25 l 0,-0.5 C 50,17.010506 46.989494,14 43.25,14 l -22.5,0 z M 21,36 c -3.877991,0 -7,3.122009 -7,7 0,0.168747 0.01962,0.33431 0.03125,0.5 C 14.286845,39.857971 17.290757,37 21,37 l 22,0 c 3.709243,0 6.713155,2.857971 6.96875,6.5 C 49.980378,43.33431 50,43.168747 50,43 50,39.122009 46.877991,36 43,36 l -22,0 z" style="opacity:.1;color:#bebebe;fill:#000;fill-opacity:1;fill-rule:nonzero;stroke:none;stroke-width:1;marker:none;visibility:visible;display:inline;overflow:visible;enable-background:accumulate"/><path id="rect3967" d="m 34,15 c -3.324,0 -6,2.676 -6,6 0,0.124857 0.02381,0.252079 0.03125,0.375 C 28.337417,18.342114 30.88375,16 34,16 l 9,0 c 3.11625,0 5.662583,2.342114 5.96875,5.375 C 48.976194,21.252079 49,21.124857 49,21 49,17.676 46.324,15 43,15 l -9,0 z M 21,37 c -3.324,0 -6,2.676 -6,6 0,0.124857 0.02381,0.252079 0.03125,0.375 C 15.337417,40.342114 17.88375,38 21,38 l 9,0 c 3.11625,0 5.662583,2.342114 5.96875,5.375 C 35.976194,43.252079 36,43.124857 36,43 36,39.676 33.324,37 30,37 l -9,0 z" style="opacity:.4;color:#bebebe;fill:#fff;fill-opacity:1;fill-rule:nonzero;stroke:none;stroke-width:1;marker:none;visibility:visible;display:inline;overflow:visible;enable-background:accumulate"/></g></svg>