<svg xmlns="http://www.w3.org/2000/svg" xmlns:svg="http://www.w3.org/2000/svg" style="display:inline;enable-background:new" id="svg11300" width="128" height="128" version="1.0" viewBox="0 0 128 128"><title id="title4162">Adwaita Icon Template</title><metadata id="metadata4"/><rect style="display:inline;opacity:1;fill:#d2d8dc;fill-opacity:1;stroke:none;stroke-width:.25;stroke-linecap:butt;stroke-linejoin:miter;stroke-miterlimit:4;stroke-dasharray:none;stroke-dashoffset:0;stroke-opacity:1;marker:none;marker-start:none;marker-mid:none;marker-end:none;paint-order:normal;enable-background:new" id="rect879" width="104" height="100" x="12" y="16" rx="8" ry="8"/><rect id="rect1711" width="104" height="100" x="12" y="12" rx="8" ry="8" style="display:inline;opacity:1;fill:#f1f3f5;fill-opacity:1;stroke:none;stroke-width:.25;stroke-linecap:butt;stroke-linejoin:miter;stroke-miterlimit:4;stroke-dasharray:none;stroke-dashoffset:0;stroke-opacity:1;marker:none;marker-start:none;marker-mid:none;marker-end:none;paint-order:normal;enable-background:new"/><path style="display:inline;opacity:1;fill:#f1f3f5;fill-opacity:1;stroke:none;stroke-width:.25;stroke-linecap:butt;stroke-linejoin:miter;stroke-miterlimit:4;stroke-dasharray:none;stroke-dashoffset:0;stroke-opacity:1;marker:none;marker-start:none;marker-mid:none;marker-end:none;paint-order:normal;enable-background:new" id="rect864" d="m 20,112 h 88 c 4.432,0 8,-3.568 8,-8 V 86 H 12 v 18 c 0,4.432 3.568,8 8,8 z"/><path id="path830" d="m 20,12 h 88 c 4.432,0 8,3.568 8,8 V 86 H 12 V 20 c 0,-4.432 3.568,-8 8,-8 z" style="display:inline;opacity:1;fill:#070c0f;fill-opacity:1;stroke:none;stroke-width:.25;stroke-linecap:butt;stroke-linejoin:miter;stroke-miterlimit:4;stroke-dasharray:none;stroke-dashoffset:0;stroke-opacity:1;marker:none;marker-start:none;marker-mid:none;marker-end:none;paint-order:normal;enable-background:new"/><rect id="rect4024" width="88" height="6" x="20" y="95" style="display:inline;fill:#758087;fill-opacity:1;fill-rule:nonzero;stroke:none;stroke-width:.99999994"/><rect style="display:inline;fill:#e6461d;fill-opacity:1;fill-rule:nonzero;stroke:none" id="rect4020" width="36" height="6" x="20" y="95"/><rect style="display:inline;opacity:.3;fill:#000;fill-opacity:1;fill-rule:nonzero;stroke:none;stroke-width:.99999994" id="rect4026" width="88" height="1" x="20" y="95"/><rect id="rect4028" width="88" height="1" x="20" y="101" style="display:inline;opacity:.5;fill:#fff;fill-opacity:1;fill-rule:nonzero;stroke:none;stroke-width:.99999994"/><rect id="rect3419" width="16" height="7" x="46" y="95" style="display:inline;opacity:.2;fill:#d2d8dc;fill-opacity:1;fill-rule:nonzero;stroke:none;stroke-width:1"/><path id="path2847" d="M 80,50.018127 54,63.5 l 0.02326,-27 z" style="fill:#fff;stroke:none;stroke-width:1.51658"/><circle style="display:inline;fill:none;stroke:#fff;stroke-width:3;stroke-miterlimit:4;stroke-dasharray:none;stroke-opacity:1" id="path4333" cx="64" cy="50" r="26.5"/></svg>