<svg xmlns="http://www.w3.org/2000/svg" xmlns:xlink="http://www.w3.org/1999/xlink" style="enable-background:new" width="64" height="64" version="1.0"><defs><linearGradient id="linearGradient7220" x1="291" x2="349" y1="172" y2="172" gradientTransform="matrix(0,-1,1,0,-140,352)" gradientUnits="userSpaceOnUse"><stop offset="0" stop-color="#bd251d"/><stop offset="1" stop-color="#e22c1e"/></linearGradient></defs><metadata/><rect style="color:#bebebe;enable-background:accumulate" width="60" height="60" x="2" y="3" opacity=".1" ry="12.5"/><path style="color:#bebebe;enable-background:accumulate" fill="url(#linearGradient7220)" d="m14.5 2.5c-6.66 0-12 5.34-12 12v35c0 6.66 5.34 12 12 12h35c6.66 0 12-5.34 12-12v-35c0-6.66-5.34-12-12-12h-35z"/><path d="m32 13s-8 6.1667-18 6.1667c0 27.5 18 33.833 18 33.833s18-6.3333 18-33.833c-10 0-18-6.167-18-6.167z" opacity=".2" style="enable-background:new"/><path style="enable-background:new" fill="#fff" d="m32 12s-8 6.1667-18 6.1667c0 27.5 18 33.833 18 33.833s18-6.3333 18-33.833c-10 0-18-6.167-18-6.167z"/><path style="color:#bebebe;enable-background:accumulate" fill="#fff" d="m14.5 3c-6.3883 0-11.5 5.1117-11.5 11.5v1c0-6.3883 5.1117-11.5 11.5-11.5h35c6.388 0 11.5 5.1117 11.5 11.5v-1c0-6.3883-5.112-11.5-11.5-11.5h-35z" opacity=".13"/><path d="m49.5 62c6.388 0 11.5-5.112 11.5-11.5v-1c0 6.388-5.112 11.5-11.5 11.5h-35c-6.3883 0-11.5-5.112-11.5-11.5v1c0 6.388 5.1117 11.5 11.5 11.5h35z" opacity=".5" style="color:#bebebe;enable-background:accumulate"/><path style="color:#bebebe;enable-background:accumulate" fill="#fff" d="m14.5 61c-6.3883 0-11.5-5.112-11.5-11.5v-1c0 6.388 5.1117 11.5 11.5 11.5h35c6.388 0 11.5-5.112 11.5-11.5v1c0 6.388-5.112 11.5-11.5 11.5h-35z" opacity=".1"/><path style="color:#bebebe;enable-background:accumulate" d="m14.5 2c-6.925 0-12.5 5.575-12.5 12.5v35c0 6.925 5.575 12.5 12.5 12.5h35c6.925 0 12.5-5.575 12.5-12.5v-35c0-6.925-5.575-12.5-12.5-12.5h-35zm0 1h35c6.388 0 11.5 5.1117 11.5 11.5v35c0 6.388-5.112 11.5-11.5 11.5h-35c-6.3883 0-11.5-5.112-11.5-11.5v-35c0-6.3883 5.1117-11.5 11.5-11.5z" opacity=".41"/></svg>