<svg xmlns="http://www.w3.org/2000/svg" xmlns:xlink="http://www.w3.org/1999/xlink" style="enable-background:new" width="64" height="64" version="1.0"><defs><linearGradient id="linearGradient4266" x1="291" x2="349" y1="172" y2="172" gradientTransform="matrix(0,-1,1,0,-140,352)" gradientUnits="userSpaceOnUse"><stop offset="0" stop-color="#261e2b"/><stop offset="1" stop-color="#352f39"/></linearGradient></defs><metadata/><rect style="color:#bebebe;enable-background:accumulate" width="60" height="60" x="2" y="3" opacity=".1" ry="12.5"/><path style="color:#bebebe;enable-background:accumulate" fill="url(#linearGradient4266)" d="m14.5 2.5c-6.66 0-12 5.34-12 12v35c0 6.66 5.34 12 12 12h35c6.66 0 12-5.34 12-12v-35c0-6.66-5.34-12-12-12h-35z"/><path style="enable-background:new" fill="none" stroke="#fff" stroke-width="2" d="m32 11c-6.4616 0-11.9 5.0621-12 11.344v6.6562h-2.4375c-1.988 0-3.562 1.535-3.562 3.469v17.062c0 1.9337 1.5735 3.4688 3.5625 3.4688h28.875c1.989 0 3.563-1.535 3.563-3.469v-17.062c0-1.9338-1.5742-3.4199-3.5625-3.4688h-2.4375v-6.6562c0-6.282-5.538-11.344-12-11.344zm0 6c0.75 0 6 0 6 5.3438v6.656h-12v-6.656c0-5.344 5.25-5.344 6-5.344z" opacity=".1"/><path style="enable-background:new" fill="#fff" fill-rule="evenodd" d="m32 11c-6.4616 0-11.9 5.0621-12 11.344v6.6562h-2.4375c-1.988 0-3.562 1.535-3.562 3.469v17.062c0 1.9337 1.5735 3.4688 3.5625 3.4688h28.875c1.989 0 3.563-1.535 3.563-3.469v-17.062c0-1.9338-1.5742-3.4199-3.5625-3.4688h-2.4375v-6.6562c0-6.282-5.538-11.344-12-11.344zm0 6c0.75 0 6 0 6 5.3438v6.656h-12v-6.656c0-5.344 5.25-5.344 6-5.344z"/><path style="color:#bebebe;enable-background:accumulate" fill="#fff" d="m14.5 3c-6.3883 0-11.5 5.1117-11.5 11.5v1c0-6.3883 5.1117-11.5 11.5-11.5h35c6.388 0 11.5 5.1117 11.5 11.5v-1c0-6.3883-5.112-11.5-11.5-11.5h-35z" opacity=".13"/><path d="m49.5 62c6.388 0 11.5-5.112 11.5-11.5v-1c0 6.388-5.112 11.5-11.5 11.5h-35c-6.3883 0-11.5-5.112-11.5-11.5v1c0 6.388 5.1117 11.5 11.5 11.5h35z" opacity=".5" style="color:#bebebe;enable-background:accumulate"/><path style="color:#bebebe;enable-background:accumulate" fill="#fff" d="m14.5 61c-6.3883 0-11.5-5.112-11.5-11.5v-1c0 6.388 5.1117 11.5 11.5 11.5h35c6.388 0 11.5-5.112 11.5-11.5v1c0 6.388-5.112 11.5-11.5 11.5h-35z" opacity=".1"/><path style="color:#bebebe;enable-background:accumulate" d="m14.5 2c-6.925 0-12.5 5.575-12.5 12.5v35c0 6.925 5.575 12.5 12.5 12.5h35c6.925 0 12.5-5.575 12.5-12.5v-35c0-6.925-5.575-12.5-12.5-12.5h-35zm0 1h35c6.388 0 11.5 5.1117 11.5 11.5v35c0 6.388-5.112 11.5-11.5 11.5h-35c-6.3883 0-11.5-5.112-11.5-11.5v-35c0-6.3883 5.1117-11.5 11.5-11.5z" opacity=".71"/></svg>